<?xml version="1.0" encoding="utf-8"?>
<!-- Generator: Adobe Illustrator 27.5.0, SVG Export Plug-In . SVG Version: 6.00 Build 0)  -->
<svg version="1.1" xmlns="http://www.w3.org/2000/svg" xmlns:xlink="http://www.w3.org/1999/xlink" x="0px" y="0px"
	 viewBox="0 0 1100 800" style="enable-background:new 0 0 1100 800;" xml:space="preserve">
<g id="background">
	<rect style="fill:#FFFFFF;" width="1100" height="800"/>
</g>
<g id="object">
	<path style="opacity:0.08;" d="M521.052,617.911c-11.197-0.645-22.391-1.339-33.582-2.082c-7.411-0.492-14.821-1.006-22.229-1.542
		c-110.516-7.989-223.012-20.651-331.038,4.008c-11.145,2.544-23.37,6.338-29.006,16.284
		c-20.317,35.846,68.565,35.098,82.853,35.736c229.161,10.229,456.699-10.051,685.772-12.304c32.412-0.319,65.36,0.922,97.76,1.626
		c19.682,0.428,45.29,3.001,64.565-1.449c12.177-2.811,11.146-12.053,1.788-16.728c-17.081-8.532-42.658-9.193-61.979-9.934
		c-80.7-3.094-160.448-7.174-241.082-7.299C663.56,624.117,592.248,622.01,521.052,617.911z"/>
	<g id="XMLID_728_">
		<g id="XMLID_730_">
			<g>
				<polygon style="fill:#7B4F34;" points="860.265,287.669 854.284,282.944 853.527,276.241 852.044,275.666 851.292,277.478 
					849.093,272.079 844.97,269.826 839.422,272.576 836.664,278.405 840.006,283.726 846.551,287.225 854.466,294.049 				"/>
			</g>
		</g>
		<g id="XMLID_729_">
			<g>
				<polygon style="fill:#8EC3CB;" points="861.425,282.731 919.158,331.691 948.917,328.846 960.139,357.777 908.323,364.643 
					896.595,358.742 847.373,293.597 				"/>
			</g>
		</g>
	</g>
	<g>
		<path style="fill:#7B4F34;" d="M949.135,264.122c0.901-1.79,1.952-3.572,3.539-4.795c0.434-0.334,0.905-0.61,1.32-0.951
			c14.485-11.933,38.676-4.12,38.448,19.812c-0.122,12.875-10.572,24.642-22.683,26.689c-0.214,3.367-1.523,7.25-1.957,9.759
			c-0.09,0.519-0.204,1.084-0.597,1.421c-0.349,0.3-0.833,0.343-1.282,0.354c-4.23,0.11-8.456-1.428-11.664-4.245
			c-0.235-0.206-0.472-0.43-0.592-0.725c-0.145-0.36-0.095-0.771-0.038-1.16c0.396-2.721,1.008-5.41,1.804-8.041
			c-6.262-3.515-9.877-10.787-10.571-18.016C944.198,277.313,946.012,270.321,949.135,264.122z"/>
		<path style="fill:#3B455A;" d="M956.99,299.993c-0.196,0.431-0.401,0.875-0.752,1.193c-0.974,0.881-2.511,0.421-3.712-0.111
			c-2.218-0.982-4.43-2.075-6.226-3.705c-1.797-1.63-3.153-3.878-3.234-6.302c-0.029-0.876,0.133-1.811,0.726-2.457
			c0.592-0.645,1.707-0.854,2.349-0.258c0.36,0.334,0.505,0.832,0.726,1.27c0.602,1.192,1.801,1.969,3.026,2.499
			c1.355,0.586,2.96,0.926,4.276,0.258c1.655-0.84,2.206-2.872,2.906-4.592c1.197-2.943,5.309-4.141,5.156-0.119
			C962.091,291.347,958.509,296.641,956.99,299.993z"/>
	</g>
	<g>
		<g>
			<g>
				<path style="fill:#3B455A;" d="M891.141,623.287l-5.905,5.513c-3.804,3.552-2.932,9.994,1.837,12.076
					c2.81,1.227,6.77,1.038,12.247-2.71l12.575-14.3l-2.042-4.626l-13.146-1.986L891.141,623.287z"/>
			</g>
		</g>
		<g>
			<g>
				<path style="fill:#CCD2D9;" d="M884.211,461.576l-6.595,89.138l15.848,69.416l18.248-0.382l8.377-59.046
					c0,0,48.457-78.653,44.836-81.155C961.304,477.046,884.211,461.576,884.211,461.576z"/>
			</g>
		</g>
	</g>
	<g>
		<g>
			<g>
				<path style="fill:#3B455A;" d="M1013.29,627.545l-2.581,7.655c-1.663,4.931,2.161,10.189,7.348,9.759
					c3.056-0.254,6.452-2.299,9.494-8.196l4.283-18.555l-3.993-3.103l-12.514,4.49L1013.29,627.545z"/>
			</g>
		</g>
		<g>
			<g>
				<path style="fill:#CCD2D9;" d="M930.455,488.489l36.493,81.592l46.89,53.583l15.881-8.995l-20.645-55.95
					c0,0,5.331-92.228,0.956-92.711C1005.655,465.523,930.455,488.489,930.455,488.489z"/>
			</g>
		</g>
	</g>
	<g>
		<g>
			<path style="fill:#8EC3CB;" d="M1005.652,328.239c15.114,18.392,17.051,44.873,16.709,69.33
				c-0.303,21.672-1.832,43.339-4.574,64.846c-0.975,7.646-2.411,15.905-7.817,21.146c-3.561,3.451-8.345,5.061-12.998,6.406
				c-34.75,10.046-71.793,10.817-106.713,2.219c-3.883-0.956-7.94-2.143-10.729-5.131c-2.086-2.236-3.233-5.248-4.187-8.225
				c-9.52-29.711-4.486-62.52,3.598-92.886c5.823-21.871,13.579-44.01,28.476-60.5C934.637,295.312,980.46,297.583,1005.652,328.239
				z"/>
		</g>
	</g>
	<g>
		<g>
			<g>
				<path style="fill:#EAC5B0;" d="M538.51,224.121c2.103-2.329,4.207-4.657,6.31-6.986c-0.168-0.697-0.29-1.39-0.367-2.061
					c-1.498-13.093,16.313-51.563,41.596-33.956c22.957,15.988-6.63,38.219-21.907,43.869c-3.189,1.179-7.024,2.122-10.712,1.263
					c-1.973,3.043-3.742,6.219-5.277,9.506c-3.135-2.867-6.27-5.734-9.405-8.6c-0.492-0.45-1.023-0.989-0.999-1.655
					C537.77,224.965,538.15,224.519,538.51,224.121z"/>
			</g>
			<g>
				<g>
					<g>
						<path style="fill:#3B455A;" d="M578.966,221.08c-4.856,1.824-9.956,2.998-15.121,3.48
							c7.163-5.619,13.548-12.226,18.918-19.577c0.41-0.561,0.891-1.174,1.579-1.264c0.643-0.084,1.239,0.322,1.745,0.728
							C595.126,211.693,587.431,217.9,578.966,221.08z"/>
					</g>
				</g>
				<g>
					<g>
						<g>
							<path style="fill:#3B455A;" d="M549.567,206.64c-3.129,0.2-5.104-3.321-5.777-6.383
								c-2.765-12.579,3.773-26.616,15.181-32.593c9.546-5.002,24.089,0.339,15.628,10.68c-3,3.666-9.772,5.526-13.36,9.274
								C556.112,192.973,552.814,200.07,549.567,206.64z"/>
						</g>
					</g>
					<g>
						<g>
							<path style="fill:#3B455A;" d="M610.245,195.52c0.417,1.322,0.827,2.679,1.279,4.093c0.936,2.927,1.949,4.774,5.111,6.007
								c0.904,0.353,8.617,1.371,8.621-0.385c-0.025,11.638-13.037,12.652-21.069,14.819c-5.414,1.461-11.325,5.657-17.154,3.791
								c-6.412-2.052-5.235-7.989-6.842-13.278c-1.417-4.664-3.72-9.079-5.344-13.678c-2.695-7.629-6.137-19.442,3.313-23.867
								c11.038-5.167,20.879,2.274,26.964,11.198C607.724,188.033,609.015,191.623,610.245,195.52z"/>
						</g>
					</g>
				</g>
			</g>
		</g>
		<g>
			<g>
				<g>
					<polygon style="fill:#EDD3B8;" points="636.409,431.431 648.713,437.496 652.313,430.248 638.673,423.524 					"/>
				</g>
				<g>
					<path style="fill:#3B455A;" d="M652.347,430.146l-3.38,6.598l0.1,3.079l4.039,3.555l14.629-12.316l0,0
						c-0.508-2.793-3.5-4.314-6.067-3.085l-0.847,0.406L652.347,430.146z"/>
				</g>
			</g>
			<g>
				<g>
					<polygon style="fill:#EDD3B8;" points="612.631,457.798 623.089,464.331 627.297,458.474 615.703,451.231 					"/>
				</g>
				<path style="fill:#3B455A;" d="M627.297,458.474l-4.208,5.857l1.331,3.796l4.736,2.351l11.731-14.452l-0.704-1.062
					c-1.384-2.086-4.545-2.269-6.321-0.366l-0.284,0.305L627.297,458.474z"/>
			</g>
			<g id="XMLID_727_">
				<path style="fill:#3B455A;" d="M514.56,383.418l24.363,24.725c12.386,12.57,26.134,23.72,40.991,33.244l38.259,24.525
					l10.001-15.378l-25.719-19.623c-13.246-10.107-24.398-22.695-32.835-37.062l-40.392-68.786l-34.753,22.185L514.56,383.418z"/>
			</g>
			<g id="XMLID_725_">
				<g id="XMLID_726_">
					<path style="fill:#3B455A;" d="M580.282,339.16l17.729,27.567c7.192,11.183,16.05,21.203,26.266,29.714l29.611,24.666
						l-9.899,17.245l-21.68-14.173c-25.13-16.428-48.322-35.646-69.133-57.287l-6.039-6.28l-21.329-27.318l27.238-21.234
						L580.282,339.16z"/>
				</g>
			</g>
		</g>
		<path style="fill:#7FC5A3;" d="M540.444,217.055c-8.147-7.636-26.196,4.886-32.729,10.6c-6.684,5.847-11.907,13.235-15.925,21.155
			c-2.874,5.663-5.159,11.625-6.806,17.758c-4.915,18.295-3.046,34.248,0.412,52.399c1.669,8.763,3.457,17.508,5.519,26.188
			c1.43,6.024,3.208,13.6,5.965,18.986c13.975-4.972,27.52-13.316,40.866-19.855c6.572-3.22,13.687-6.528,20.911-5.355
			c4.374,0.711,8.635,3.053,12.992,2.246c3.121-0.578,5.777-2.716,8.89-3.334c6.387-1.268,13.751,3.925,19.063,0.159
			c-0.727-2.832-3.522-4.672-6.328-5.494c-2.806-0.822-5.786-0.904-8.597-1.71c-8.686-2.49-13.917-11.104-18.171-19.076
			c-8.168-15.306-16.102-32.432-12.411-49.383c0.972-4.464,2.734-8.742,3.455-13.253c1.003-6.275-0.207-12.839-3.173-18.441
			C550.96,224.189,545.535,221.827,540.444,217.055z"/>
		<g>
			<g>
				<polygon style="fill:#FEE7DE;" points="613.684,301.403 611.364,308.866 623.248,314.134 629.542,308.943 628.584,301.986 
					622.502,303.148 622.937,301.749 624.793,300.796 623.807,298.95 				"/>
			</g>
			<g>
				<g>
					<polygon style="fill:#7FC5A3;" points="540.938,237.261 571.792,281.493 616.871,299.194 613.837,310.751 556.867,298.828 
						514.252,244.548 					"/>
				</g>
			</g>
		</g>
		<g>
			<g>
				<g>
					<path style="fill:#D34E4E;" d="M649.503,266.186l4.316,1.137l7.894-29.951c0.759-2.474,0.381-7.97-6.396-11.532l-16.529-9.504
						l-2.223,3.804l16.648,9.57c5.312,2.775,4.241,6.329,4.23,6.365l-0.032,0.111L649.503,266.186z"/>
				</g>
				<polygon style="opacity:0.1;" points="661.622,237.732 661.398,238.585 657.136,237.24 657.361,236.388 				"/>
				<path style="opacity:0.1;" d="M657.536,235.063l4.447-0.173c0.017,0.307,0.017,0.602,0.002,0.882l-4.507,0.176
					C657.511,235.784,657.556,235.475,657.536,235.063z"/>
				<path style="opacity:0.1;" d="M657.248,233.694l4.102-1.663c0.112,0.283,0.206,0.563,0.286,0.839l-4.156,1.685
					C657.436,234.29,657.363,234.001,657.248,233.694z"/>
				<path style="opacity:0.1;" d="M656.537,232.39l3.284-2.966c0.191,0.239,0.368,0.479,0.53,0.72l-3.339,3.016
					C656.884,232.91,656.729,232.652,656.537,232.39z"/>
				<path style="opacity:0.1;" d="M658.224,227.784l-2.132,4.058c-0.195-0.216-0.418-0.433-0.666-0.65l2.089-3.976
					C657.764,227.403,657.999,227.592,658.224,227.784z"/>
			</g>
			<path style="fill:#D34E4E;" d="M606.651,346.514l17.013-85.146l53.293,14.045l-27.553,82.368
				C649.403,357.782,628.35,358.688,606.651,346.514z"/>
			<polygon style="fill:#EBB044;" points="679.882,270.075 680.846,266.417 624.714,251.623 623.75,255.281 621.56,254.704 
				620.054,260.418 680.566,276.366 682.072,270.652 			"/>
			<path style="opacity:0.18;" d="M676.956,275.414c0,0-41.687-9.183-54.728-6.861l1.435-7.184L676.956,275.414z"/>
			<path style="opacity:0.18;" d="M649.403,357.782c0,0-21.054,0.906-42.753-11.268l12.917-64.647
				C621.478,343.743,649.403,357.782,649.403,357.782z"/>
			<polygon style="fill:#EBB044;" points="611.011,319.86 618.079,283.928 670.697,297.795 658.964,332.498 			"/>
			<path style="opacity:0.06;" d="M618.079,283.928c0,0-0.914,23.472,10.84,40.652l-17.908-4.72L618.079,283.928z"/>
			<polygon style="opacity:0.18;" points="657.951,332.231 611.928,320.102 611.168,323.907 			"/>
			<path style="opacity:0.18;" d="M624.714,251.623l-0.964,3.658l26.489,6.981C650.239,262.262,627.948,256.308,624.714,251.623z"/>
		</g>
		<g>
			<g>
				<polygon style="fill:#EAC5B0;" points="638.46,266.84 638.744,274.651 651.702,275.685 655.921,268.702 652.712,262.455 
					647.359,265.566 647.306,264.102 648.742,262.588 647.199,261.173 				"/>
			</g>
			<g>
				<g>
					<polygon style="fill:#7FC5A3;" points="548.575,230.418 592.338,261.932 640.736,263.701 641.701,275.611 583.999,283.232 
						525.809,246.133 					"/>
				</g>
			</g>
		</g>
	</g>
	<path style="fill:#474EBB;" d="M350.916,313.514c-22.162-1.934-40.546,2.946-61.56,29.38c35.1-9.933,73.894,0.973,104.19,20.118
		c30.295,19.146,63.085,38.626,87.323,64.087c24.238,25.46,42.043,54.068,74.16,72.569c52.854,30.445,121.782,26.367,178.554,2.544
		c25.609-10.746,43.148-31.74,71.086-38.367c16.557-3.927,34.207-2.757,50.359,2.135c17.557,5.317,33.323,14.71,50.012,21.832
		c15.25,6.508,30.845,12.346,46.713,17.493c2.558,0.83,7.503,3.453,9.787,2.053c1.893-1.16,2.85-8.133,3.39-10.13
		c0.508-1.881,4.89-21.339,3.312-21.681c-35.543-7.692-64.119-32.311-98.706-43.099c-32.66-10.187-69.93-6.986-99.995,8.589
		c-13.387,6.935-25.266,16.114-38.447,23.379c-54.078,29.806-130.267,21.205-173.193-21.35
		c-9.949-9.863-18.076-21.143-27.038-31.781C481.803,353.044,430.467,320.455,350.916,313.514z"/>
	<g>
		<g>
			<g>
				<g>
					<polygon style="fill:#EAC5B0;" points="84.171,442.871 96.99,535.09 92.438,601.71 101.774,604.966 110.131,543.407 
						127.965,430.915 					"/>
				</g>
			</g>
			<g>
				<polygon style="fill:#3B455A;" points="101.754,606.844 102.785,613.746 100.443,626.864 92.735,626.135 91.284,606.704 
					92.419,603.588 				"/>
			</g>
		</g>
		<g>
			<g>
				<polygon style="fill:#EAC5B0;" points="159.707,440.129 155.586,518.345 138.155,627.69 128.707,627.563 132.907,526.18 
					120.653,432.716 				"/>
			</g>
			<g>
				<polygon style="fill:#3B455A;" points="137.999,625.82 150.074,634.672 148.568,641.287 126.459,636.016 128.257,626.462 				
					"/>
			</g>
		</g>
		<g>
			<polygon style="fill:#3B455A;" points="161.79,451.852 161.396,542.641 150.287,603.856 124.976,599.759 125.713,529.012 
				115.801,454.308 123.062,439.528 159.67,443.683 			"/>
		</g>
		<g>
			<polygon style="fill:#3B455A;" points="116.881,530.348 109.045,594.738 87.035,591.312 83.673,535.901 75.962,461.87 
				84.171,448.334 122.471,451.895 			"/>
		</g>
		<g>
			<g>
				<path style="fill:#EAC5B0;" d="M74.478,284.769c1.686-15.982,22.007-25.787,30.682-9.497c2.607,4.895,4.686,10.236,4.803,15.789
					c0.117,5.554-1.998,11.361-6.424,14.598c-0.025,0.019-0.052,0.033-0.077,0.051c0.486,1.344,0.972,2.688,1.457,4.033
					c0.105,0.289,0.209,0.609,0.098,0.894c-0.127,0.324-0.483,0.479-0.805,0.601c-1.572,0.596-3.144,1.191-4.717,1.787
					c-0.779,0.295-1.593,0.595-2.422,0.509c-1.815-0.188-2.961-2.106-3.421-3.901c-0.11-0.43-0.199-0.868-0.286-1.308
					C83.038,307.04,73.376,295.216,74.478,284.769z"/>
			</g>
			<g>
				<g>
					<path style="fill:#3B455A;" d="M105.644,280.044c3.016,3.528,3.606,8.32,3.667,12.806c0.06,4.387,1.179,8.513,0.835,12.919
						c0.558,0.595,1.51-0.002,2.072-0.588c3.293-3.435,6.539-6.917,9.737-10.444c0.322-0.355,0.652-0.724,0.801-1.183
						c0.19-0.581,0.064-1.216-0.072-1.813c-2.7-11.804-8.703-19.807-16.834-28.198c-3.948-4.075-13.399-7.798-17.483-1.585
						c-0.93,1.415-1.074,3.207-1.11,4.911c-0.021,1.018-0.009,2.066,0.367,3.012c1.497,3.772,5.123,2.994,8.181,3.805
						C99.575,274.687,103.099,277.066,105.644,280.044z"/>
				</g>
				<g>
					<path style="fill:#3B455A;" d="M79.641,292.086c0.528,3.44,1.931,7.222,3.461,10.316c0.53,1.072,3.09,3.359,3.275,4.112
						c0.534,2.179-3.212,8.066-4.099,10.178c-7.711-2.853-15.421-5.705-23.132-8.558c-0.591-0.219-1.211-0.458-1.61-0.951
						c-0.363-0.448-0.489-1.041-0.597-1.61c-2.125-11.183-0.783-21.734,1.941-32.564c2.722-10.825,11.06-20.563,22.485-21.593
						c9.231-0.833,16.662,4.93,14.766,14.864c-1.431,7.499-10.048,10.365-14.117,15.964
						C79.459,285.757,79.059,288.919,79.641,292.086z"/>
				</g>
			</g>
		</g>
		<g>
			<path style="fill:#D34E4E;" d="M84.498,314.774c-0.176,0.091-0.351,0.182-0.524,0.275c-8.299,4.436-13.323,20.001-16.176,29.134
				c-7.364,23.576-8.921,47.319-6.691,71.975c1.201,13.277,2.998,26.495,5.067,39.663c0.572,3.638,7.899,35.911,6.315,36.919
				c16.246-10.337,32.837-20.269,50.62-27.317c17.783-7.047,36.993-0.81,56.042,0.86c-10.767-40.769-24.248-92.264-40.987-130.803
				c-2.002-4.609-3.576-9.599-6.227-13.866c-3.053-4.914-6.854-5.974-11.798-8.456c-1.694-0.85-3.4-1.705-5.209-2.214
				C105.393,308.265,93.26,310.264,84.498,314.774z"/>
		</g>
	</g>
	<g>
		<g>
			<polygon style="fill:#EBCEB1;" points="183.182,272.031 185.188,259.436 179.851,258.435 176.57,266.788 174.286,265.141 
				173.88,276.105 179.275,277.896 			"/>
		</g>
		<g>
			<path style="fill:#D34E4E;" d="M91.366,351.358c0.066-1.014,0.294-2.083,0.703-3.194c1.7-4.61,5.525-8.219,9.815-10.638
				c6.792-3.83,14.835-5.549,22.014-8.587c8.212-3.474,16.424-6.949,24.637-10.423l24.238-46.148l10.514,4.104
				c0,0-18.619,61.277-18.619,61.277c-11.125,4.082-22.011,8.029-32.801,12.777c-9.672,4.256-19.216,10.829-30.147,10.5
				C95.546,360.84,91.005,356.929,91.366,351.358z"/>
		</g>
	</g>
	<g>
		<g>
			<g>
				
					<ellipse transform="matrix(0.7071 -0.7071 0.7071 0.7071 -206.4222 380.1848)" style="fill:#474EBB;" cx="355.713" cy="439.266" rx="145.226" ry="145.226"/>
				<circle style="fill:#3B455A;" cx="355.713" cy="439.266" r="116.272"/>
			</g>
		</g>
		<path style="fill:#CCD2D9;" d="M361.484,234.927c-112.659,0-203.987,89.783-203.987,200.536s91.328,200.536,203.987,200.536
			S565.47,546.216,565.47,435.463S474.142,234.927,361.484,234.927z M447.373,277.245c13.882,5.864,26.721,14.021,37.964,24.146
			c14.322,12.898,25.702,28.673,33.406,46.228c2.096,4.776-0.288,10.293-5.188,11.996l-106.398,36.993
			c-4.477,1.557-8.83-2.736-7.331-7.23l35.622-106.788C437.088,277.678,442.571,275.216,447.373,277.245z M378.455,453.801
			c3.206-3.063,8.288-2.947,11.35,0.259c3.063,3.206,2.947,8.288-0.259,11.35c-3.206,3.063-8.288,2.946-11.35-0.259
			C375.133,461.946,375.249,456.864,378.455,453.801z M379.014,407.404c3.152-3.118,8.235-3.09,11.353,0.062
			c3.118,3.152,3.09,8.235-0.062,11.353c-3.152,3.118-8.235,3.09-11.353-0.062C375.834,415.605,375.862,410.522,379.014,407.404z
			 M386.04,436.846c0.146-4.431,3.857-7.905,8.289-7.759c4.431,0.146,7.905,3.857,7.759,8.289c-0.147,4.431-3.858,7.905-8.289,7.759
			C389.367,444.989,385.893,441.278,386.04,436.846z M361.484,411.466c-4.434,0-8.028-3.594-8.028-8.028
			c0-4.434,3.594-8.028,8.028-8.028s8.028,3.594,8.028,8.028C369.512,407.871,365.918,411.466,361.484,411.466z M369.512,468.633
			c0,4.434-3.594,8.028-8.028,8.028s-8.028-3.594-8.028-8.028s3.594-8.028,8.028-8.028S369.512,464.199,369.512,468.633z
			 M332.662,453.251c3.152-3.118,8.235-3.09,11.353,0.062c3.118,3.152,3.09,8.235-0.062,11.353
			c-3.152,3.118-8.235,3.09-11.353-0.062C329.482,461.452,329.51,456.369,332.662,453.251z M328.639,442.983
			c-4.431-0.146-7.905-3.857-7.759-8.289c0.146-4.431,3.857-7.905,8.289-7.759c4.431,0.146,7.905,3.857,7.759,8.289
			C336.781,439.656,333.07,443.129,328.639,442.983z M344.512,418.27c-3.206,3.063-8.288,2.947-11.35-0.259
			c-3.063-3.206-2.947-8.288,0.259-11.35c3.206-3.063,8.288-2.947,11.351,0.26C347.834,410.125,347.718,415.207,344.512,418.27z
			 M306.101,261.884c15.712-5.565,32.368-8.763,49.271-9.439c21.533-0.861,42.939,2.392,62.774,9.495
			c5.396,1.932,7.77,7.536,5.157,12.189l-56.728,101.038c-2.387,4.252-9.221,4.248-11.51-0.006l-54.389-101.098
			C298.174,269.411,300.666,263.809,306.101,261.884z M201.554,339.513c9.269-17.178,22.1-32.333,37.66-44.406
			c12.214-9.478,25.874-16.874,40.394-21.898c5.023-1.738,10.353,1.086,11.592,6.133l26.94,109.71
			c1.134,4.617-3.627,8.661-8.018,6.812l-104.343-43.951C200.973,349.888,199.033,344.186,201.554,339.513z M189.873,485.599
			c-7.154-19.817-10.464-41.214-9.659-62.749c0.632-16.905,3.787-33.569,9.311-49.296c1.911-5.44,7.507-7.946,12.164-5.456
			l101.24,54.125c4.26,2.278,4.282,9.112,0.036,11.51l-100.889,56.992C197.43,493.349,191.819,490.99,189.873,485.599z
			 M266.343,591.653c-17.364-8.916-32.778-21.435-45.167-36.744c-9.725-12.018-17.4-25.524-22.719-39.937
			c-1.84-4.986,0.874-10.373,5.895-11.715l109.136-29.177c4.592-1.228,8.733,3.449,6.974,7.877l-41.809,105.219
			C276.728,592.022,271.067,594.078,266.343,591.653z M416.595,609.83c-19.798,7.206-41.186,10.571-62.724,9.822
			c-16.907-0.588-33.579-3.699-49.32-9.182c-5.445-1.896-7.966-7.486-5.488-12.15l53.86-101.381c2.266-4.266,9.1-4.306,11.51-0.066
			l57.255,100.74C424.325,602.254,421.981,607.87,416.595,609.83z M524.925,521.381c-6.603,14.148-15.493,27.218-26.315,38.647
			c-13.785,14.56-30.366,26.099-48.591,33.873c-4.958,2.115-10.467-0.349-11.979-5.363l-32.822-108.876
			c-1.381-4.582,3.188-9.005,7.695-7.449l107.111,36.961C524.953,510.873,527.209,516.487,524.925,521.381z M524.944,490.724
			l-100.89-56.992c-4.246-2.398-4.224-9.232,0.036-11.51l101.24-54.125c4.658-2.49,10.253,0.016,12.164,5.456
			c5.523,15.727,8.679,32.391,9.311,49.296c0.805,21.535-2.504,42.932-9.659,62.749C535.2,490.99,529.59,493.349,524.944,490.724z"
			/>
	</g>
	<g>
		<g>
			<polygon style="fill:#EBCEB1;" points="204.514,366.401 216.232,361.365 214.225,356.319 205.412,358.01 205.583,355.199 
				196.099,360.716 197.469,366.233 			"/>
		</g>
		<g>
			<path style="fill:#D34E4E;" d="M88.397,331.19c0.892-0.486,1.917-0.865,3.076-1.113c4.805-1.027,9.899,0.277,14.237,2.61
				c6.867,3.694,12.618,9.573,19.023,14.018c7.325,5.084,14.651,10.168,21.976,15.253l51.958-4.176l2.15,11.079
				c0,0-61.743,17.01-61.743,17.01c-9.396-7.221-18.549-14.313-28.329-20.895c-8.767-5.9-19.423-10.454-24.986-19.869
				C82.616,339.791,83.495,333.863,88.397,331.19z"/>
		</g>
	</g>
	<g>
		
			<rect x="761.819" y="130.961" transform="matrix(0.1216 -0.9926 0.9926 0.1216 504.9198 1000.4803)" style="fill:#3B455A;" width="111.817" height="168.003"/>
		
			<rect x="816.148" y="65.484" transform="matrix(0.1216 -0.9926 0.9926 0.1216 576.9017 951.382)" style="fill:#5A595C;" width="19.659" height="168.519"/>
		<g>
			<polygon style="fill:#F7F7F7;" points="888.588,167.318 908.417,169.747 910.807,150.234 910.492,150.195 			"/>
			<polygon style="fill:#E5E5E6;" points="743.539,129.741 741.515,146.255 760.053,131.764 			"/>
			<polygon style="fill:#F7F7F7;" points="789.7,135.397 767.796,152.519 798.544,156.286 820.448,139.164 			"/>
			<polygon style="fill:#F7F7F7;" points="850.096,142.796 828.192,159.918 858.94,163.686 880.844,146.563 			"/>
			<polygon style="fill:#3B455A;" points="760.053,131.764 741.515,146.255 741.148,149.254 767.796,152.519 789.7,135.397 			"/>
			<polygon style="fill:#3B455A;" points="820.448,139.164 798.544,156.286 828.192,159.918 850.096,142.796 			"/>
			<polygon style="fill:#3B455A;" points="880.844,146.563 858.94,163.686 888.588,167.318 910.492,150.195 			"/>
		</g>
		<g>
			<polygon style="fill:#E5E5E6;" points="763.486,127.375 743.648,129.727 741.333,110.204 741.649,110.167 			"/>
			<polygon style="fill:#F7F7F7;" points="908.68,90.363 910.639,106.885 892.159,92.322 			"/>
			<polygon style="fill:#F7F7F7;" points="862.497,95.839 884.334,113.047 853.571,116.694 831.734,99.486 			"/>
			<polygon style="fill:#F7F7F7;" points="802.073,103.003 823.91,120.211 793.148,123.858 771.31,106.65 			"/>
			<polygon style="fill:#3B455A;" points="892.159,92.322 910.639,106.885 910.995,109.886 884.334,113.047 862.497,95.839 			"/>
			<polygon style="fill:#3B455A;" points="831.734,99.486 853.571,116.694 823.91,120.211 802.073,103.003 			"/>
			<polygon style="fill:#3B455A;" points="771.31,106.65 793.148,123.858 763.486,127.375 741.649,110.167 			"/>
		</g>
		<polygon style="fill:#3B455A;" points="741.148,149.254 741.333,110.234 761.17,107.875 781.456,154.193 		"/>
		<polygon style="opacity:0.3;fill:#262425;" points="761.17,107.875 775.893,125.904 769.311,126.462 		"/>
		<polygon style="opacity:0.3;fill:#262425;" points="772.29,133.263 787.31,154.91 781.456,154.193 		"/>
		<g>
			<path style="fill:#F7F7F7;" d="M756.079,118.179c-0.139,1.463-1.437,2.537-2.901,2.398c-1.463-0.139-2.537-1.438-2.399-2.901
				c0.139-1.463,1.438-2.537,2.901-2.399C755.144,115.417,756.218,116.716,756.079,118.179z"/>
			<path style="fill:#F7F7F7;" d="M751.2,141.442c-0.139,1.464-1.438,2.537-2.901,2.399c-1.463-0.139-2.537-1.438-2.399-2.901
				c0.139-1.463,1.438-2.537,2.901-2.399C750.265,138.68,751.339,139.979,751.2,141.442z"/>
			<path style="fill:#F7F7F7;" d="M770.741,143.294c-0.139,1.464-1.438,2.537-2.901,2.399c-1.463-0.139-2.537-1.437-2.399-2.901
				c0.139-1.463,1.438-2.537,2.901-2.399C769.806,140.532,770.88,141.831,770.741,143.294z"/>
		</g>
		
			<rect x="813.235" y="170.61" transform="matrix(0.1216 -0.9926 0.9926 0.1216 469.6872 1024.7158)" style="fill:#F7F7F7;" width="1.138" height="152.753"/>
		<g>
			
				<rect x="775.752" y="253.519" transform="matrix(0.1216 -0.9926 0.9926 0.1216 437.3016 1002.4429)" style="fill:#F7F7F7;" width="18.555" height="1.255"/>
			
				<rect x="830.72" y="260.253" transform="matrix(0.1216 -0.9926 0.9926 0.1216 478.9053 1062.9204)" style="fill:#F7F7F7;" width="18.555" height="1.255"/>
		</g>
		
			<rect x="821.85" y="99.812" transform="matrix(0.1216 -0.9926 0.9926 0.1216 547.5784 971.1369)" style="fill:#F7F7F7;" width="1.255" height="152.753"/>
	</g>
	<g>
		<path style="fill:#EBB044;" d="M272.768,164.235c1.006-1.699,1.588-3.679,1.599-5.796c0.021-4.122-2.128-7.747-5.374-9.798
			c0.118-0.563,0.181-1.146,0.184-1.744c0.024-4.797-3.845-8.705-8.642-8.729c-0.459-0.002-0.909,0.032-1.349,0.098
			c-2.079-4.207-6.401-7.112-11.413-7.137c-2.83-0.014-5.448,0.893-7.574,2.437c0.081-0.543,0.127-1.098,0.13-1.664
			c0.032-6.36-5.098-11.542-11.458-11.574c-4.547-0.023-8.49,2.593-10.381,6.41c-2.423-2.423-5.757-3.927-9.444-3.946
			c-2.689-0.013-5.197,0.765-7.308,2.117c-2.081-2.87-5.453-4.745-9.269-4.764c-4.585-0.023-8.557,2.637-10.429,6.506
			c-0.817-0.26-1.687-0.402-2.59-0.407c-4.797-0.024-8.705,3.845-8.729,8.642c-0.003,0.688,0.076,1.356,0.223,1.998
			c-1.84-1.269-4.067-2.018-6.471-2.03c-6.36-0.032-11.542,5.098-11.574,11.458c-0.008,1.677,0.345,3.27,0.982,4.711
			c-4.512,1.541-7.767,5.803-7.793,10.839c-0.003,0.59,0.039,1.17,0.122,1.737L272.768,164.235z"/>
		<path style="opacity:0.12;" d="M272.386,164.836c1.239-1.825,1.969-4.026,1.981-6.398c0.018-3.643-1.659-6.898-4.29-9.021
			c-31.923,12.583-103,12.548-103,12.548l-0.288,2.338L272.386,164.836z"/>
		<g>
			<path style="fill:#8EC3CB;" d="M168.556,166.624l6.104,116.202c3.046,0.451,6.38,0.896,9.952,1.303l-3.455-117.441
				L168.556,166.624z"/>
			<path style="fill:#8EC3CB;" d="M215.274,166.86l-0.601,119.075c3.395,0.011,6.855-0.047,10.357-0.191l4.695-118.812
				L215.274,166.86z"/>
			<path style="fill:#8EC3CB;" d="M147.197,166.516L155.25,279.2c0,0,3.544,0.88,9.632,2.003l-6.021-114.628L147.197,166.516z"/>
			<path style="fill:#8EC3CB;" d="M190.842,166.736l3.481,118.333c3.423,0.274,6.991,0.497,10.672,0.648l0.6-118.907
				L190.842,166.736z"/>
			<path style="fill:#8EC3CB;" d="M273.672,167.154l-11.664-0.059l-7.214,115.158c3.463-0.71,6.905-1.538,10.305-2.499
				L273.672,167.154z"/>
			<path style="fill:#8EC3CB;" d="M239.41,166.981l-4.669,118.145c3.404-0.297,6.826-0.684,10.248-1.174l7.324-116.906
				L239.41,166.981z"/>
			<path style="fill:#F7F7F7;" d="M205.595,166.811l-0.6,118.907c3.151,0.13,6.384,0.206,9.678,0.217l0.601-119.075L205.595,166.811
				z"/>
			<path style="fill:#F7F7F7;" d="M158.861,166.575l6.021,114.628c2.765,0.51,6.056,1.071,9.778,1.622l-6.104-116.202
				L158.861,166.575z"/>
			<path style="fill:#F7F7F7;" d="M181.157,166.687l3.455,117.441c3.072,0.349,6.32,0.67,9.711,0.941l-3.481-118.333
				L181.157,166.687z"/>
			<path style="fill:#F7F7F7;" d="M252.313,167.046l-7.324,116.906c3.275-0.468,6.549-1.031,9.805-1.699l7.214-115.158
				L252.313,167.046z"/>
			<path style="fill:#F7F7F7;" d="M229.725,166.932l-4.695,118.812c3.208-0.131,6.451-0.334,9.711-0.618l4.669-118.145
				L229.725,166.932z"/>
		</g>
		
			<rect x="144.673" y="162.412" transform="matrix(1 0.005 -0.005 1 0.8331 -1.0595)" style="fill:#F7F7F7;" width="131.546" height="4.423"/>
		<polygon style="opacity:0.12;" points="273.672,167.154 273.27,172.434 190.842,166.736 		"/>
		<g>
			<path style="opacity:0.12;" d="M256.828,249.795c-3.117,2.892-6.542,5.5-10.19,7.852c-3.503,2.259-7.212,4.281-11.051,6.092
				c-3.207,1.513-6.505,2.88-9.849,4.112c-3.627,1.336-7.309,2.516-10.991,3.557c-3.244,0.917-6.488,1.727-9.692,2.442
				c-3.74,0.835-7.426,1.54-10.999,2.136c-3.33,0.555-6.561,1.016-9.643,1.398c-3.551,0.44-6.904,0.775-9.986,1.029
				c-3.643,0.301-6.905,0.491-9.661,0.609l0.115,2.182c2.765,0.51,6.056,1.071,9.778,1.622c3.046,0.451,6.38,0.896,9.952,1.303
				c3.072,0.349,6.32,0.67,9.711,0.941c3.423,0.274,6.991,0.497,10.672,0.648c3.151,0.13,6.384,0.206,9.678,0.217
				c3.395,0.011,6.855-0.047,10.356-0.191c3.208-0.131,6.451-0.334,9.712-0.618c3.404-0.297,6.826-0.684,10.248-1.174
				c3.275-0.468,6.549-1.031,9.805-1.699c3.463-0.71,6.905-1.538,10.305-2.499l3.431-45.068
				C265.525,240.431,261.526,245.435,256.828,249.795z"/>
		</g>
	</g>
	<g id="XMLID_722_">
		<g id="XMLID_724_">
			<g>
				<polygon style="fill:#7B4F34;" points="926.338,441.983 922.048,448.284 915.415,449.514 914.947,451.033 916.807,451.655 
					911.578,454.232 909.622,458.503 912.758,463.843 918.768,466.18 923.839,462.47 926.865,455.694 933.112,447.315 				"/>
			</g>
		</g>
		<g id="XMLID_723_">
			<g>
				<polygon style="fill:#8EC3CB;" points="921.33,441.176 966.077,380.119 961.131,350.637 989.194,337.393 999.714,388.593 
					994.658,400.71 933.163,454.422 				"/>
			</g>
		</g>
	</g>
	<g>
		<path style="fill:#474EBB;" d="M643.113,203.634c-0.787-0.348-1.745-0.094-2.412,0.451c-0.667,0.545-1.087,1.333-1.404,2.134
			c-0.608,1.534-0.9,3.193-0.852,4.842l0.315,0.517c0.375-1.534,1.709-2.603,2.812-3.733
			C642.674,206.714,643.66,205.116,643.113,203.634z"/>
		<path style="fill:#474EBB;" d="M651.417,209.602c-1.189-0.419-2.496-0.344-3.739-0.131c-2.382,0.408-4.68,1.306-6.707,2.622
			l-0.407,0.788c2.205-0.699,4.557,0.155,6.812,0.674c2.255,0.519,5.004,0.535,6.441-1.278
			C653.653,211.025,652.606,210.021,651.417,209.602z"/>
		<path style="fill:#474EBB;" d="M630.752,209.362c-0.542-0.552-1.067-1.28-0.927-1.936c0.072-0.339,0.319-0.595,0.619-0.75
			c0.785-0.404,1.892-0.146,2.755,0.431c0.863,0.576,1.525,1.422,2.107,2.276c0.532,0.782,1.065,1.607,1.466,2.448
			c0.581,1.22-0.44,0.742-1.357,0.442C633.705,211.713,632.064,210.698,630.752,209.362z"/>
	</g>
</g>
</svg>
