<?xml version="1.0" encoding="utf-8"?>
<!-- Generator: Adobe Illustrator 27.5.0, SVG Export Plug-In . SVG Version: 6.00 Build 0)  -->
<svg version="1.1" id="Layer_1" xmlns="http://www.w3.org/2000/svg" xmlns:xlink="http://www.w3.org/1999/xlink" x="0px" y="0px"
	 viewBox="0 0 2122 2122" style="enable-background:new 0 0 2122 2122;" xml:space="preserve">
<g>
	<rect style="fill:#FFFFFF;" width="2121.32" height="2121.32"/>
	<rect x="1060.66" style="fill:#E6E6E6;" width="1060.66" height="2121.32"/>
	<g>
		<g>
			<g>
				
					<radialGradient id="SVGID_1_" cx="544.706" cy="3873.8853" r="602.1049" gradientTransform="matrix(0.735 0 0 0.2493 121.248 -532.7565)" gradientUnits="userSpaceOnUse">
					<stop  offset="0.1691" style="stop-color:#FFAA00"/>
					<stop  offset="0.2167" style="stop-color:#FFB219"/>
					<stop  offset="0.3405" style="stop-color:#FFC655"/>
					<stop  offset="0.4638" style="stop-color:#FFD889"/>
					<stop  offset="0.5836" style="stop-color:#FFE6B3"/>
					<stop  offset="0.6992" style="stop-color:#FFF1D4"/>
					<stop  offset="0.8094" style="stop-color:#FFF9EC"/>
					<stop  offset="0.9122" style="stop-color:#FFFDFA"/>
					<stop  offset="1" style="stop-color:#FFFFFF"/>
				</radialGradient>
				<ellipse style="fill:url(#SVGID_1_);" cx="521.607" cy="433.003" rx="442.518" ry="150.115"/>
				<path style="fill:#FFAA00;" d="M793.378,481.381h-542.12c-51.865,0-93.91-42.045-93.91-93.911v-0.001
					c0-51.865,42.045-93.91,93.91-93.91h542.12c51.865,0,93.91,42.045,93.91,93.91v0.001
					C887.289,439.336,845.243,481.381,793.378,481.381z"/>
				<path style="fill:#00112F;" d="M793.378,459.326h-542.12c-51.865,0-93.91-42.045-93.91-93.91l0,0
					c0-51.866,42.046-93.91,93.91-93.91h542.12c51.865,0,93.91,42.045,93.91,93.91l0,0
					C887.289,417.281,845.243,459.326,793.378,459.326z"/>
			</g>
			<g>
				<polygon style="fill:#FFBB00;" points="320.731,396.573 297.005,384.638 273.194,396.38 277.217,370.131 258.696,351.097 
					284.913,346.814 297.271,323.319 309.442,346.935 335.615,351.428 316.939,370.295 				"/>
				<polygon style="fill:#FFBB00;" points="433.324,396.573 409.598,384.638 385.796,396.38 389.798,370.131 371.288,351.097 
					397.505,346.814 409.875,323.319 422.034,346.935 448.208,351.428 429.532,370.295 				"/>
				<polygon style="fill:#FFBB00;" points="545.914,396.573 522.189,384.638 498.377,396.38 502.4,370.131 483.89,351.097 
					510.085,346.814 522.455,323.319 534.625,346.935 560.798,351.428 542.123,370.295 				"/>
				<polygon style="fill:#FFBB00;" points="658.498,396.573 634.784,384.638 610.971,396.38 614.983,370.131 596.474,351.097 
					622.69,346.814 635.049,323.319 647.22,346.935 673.393,351.428 654.717,370.295 				"/>
				<polygon style="fill:#FFBB00;" points="771.102,396.573 747.376,384.638 723.563,396.38 727.577,370.131 709.067,351.097 
					735.272,346.814 747.642,323.319 759.802,346.935 785.984,351.428 767.298,370.295 				"/>
			</g>
		</g>
		<g>
			<g>
				
					<radialGradient id="SVGID_00000092416208806774265910000012975902508414568861_" cx="544.706" cy="5000.8721" r="602.1049" gradientTransform="matrix(0.735 0 0 0.2493 121.248 -532.7565)" gradientUnits="userSpaceOnUse">
					<stop  offset="0.1691" style="stop-color:#FFAA00"/>
					<stop  offset="0.2167" style="stop-color:#FFB219"/>
					<stop  offset="0.3405" style="stop-color:#FFC655"/>
					<stop  offset="0.4638" style="stop-color:#FFD889"/>
					<stop  offset="0.5836" style="stop-color:#FFE6B3"/>
					<stop  offset="0.6992" style="stop-color:#FFF1D4"/>
					<stop  offset="0.8094" style="stop-color:#FFF9EC"/>
					<stop  offset="0.9122" style="stop-color:#FFFDFA"/>
					<stop  offset="1" style="stop-color:#FFFFFF"/>
				</radialGradient>
				
					<ellipse style="fill:url(#SVGID_00000092416208806774265910000012975902508414568861_);" cx="521.607" cy="713.961" rx="442.518" ry="150.115"/>
				<path style="fill:#FFAA00;" d="M793.378,762.339h-542.12c-51.865,0-93.91-42.045-93.91-93.91l0,0
					c0-51.866,42.046-93.91,93.91-93.91h542.12c51.865,0,93.91,42.045,93.91,93.91l0,0
					C887.289,720.294,845.243,762.339,793.378,762.339z"/>
				<path style="fill:#00112F;" d="M793.378,740.285h-542.12c-51.865,0-93.91-42.045-93.91-93.91v-0.001
					c0-51.865,42.045-93.91,93.91-93.91h542.12c51.865,0,93.91,42.045,93.91,93.91v0.001
					C887.289,698.24,845.243,740.285,793.378,740.285z"/>
			</g>
			<g>
				<polygon style="fill:#FFBB00;" points="320.731,677.531 297.005,665.596 273.194,677.338 277.217,651.089 258.696,632.055 
					284.913,627.772 297.271,604.277 309.442,627.892 335.615,632.385 316.939,651.253 				"/>
				<polygon style="fill:#FFBB00;" points="433.324,677.531 409.598,665.596 385.796,677.338 389.798,651.089 371.288,632.055 
					397.505,627.772 409.875,604.277 422.034,627.892 448.208,632.385 429.532,651.253 				"/>
				<polygon style="fill:#FFBB00;" points="545.914,677.531 522.189,665.596 498.377,677.338 502.4,651.089 483.89,632.055 
					510.085,627.772 522.455,604.277 534.625,627.892 560.798,632.385 542.123,651.253 				"/>
				<polygon style="fill:#FFBB00;" points="658.498,677.531 634.784,665.596 610.971,677.338 614.983,651.089 596.474,632.055 
					622.69,627.772 635.049,604.277 647.22,627.892 673.393,632.385 654.717,651.253 				"/>
				<polygon style="fill:#5C5F66;" points="771.102,677.531 747.376,665.596 723.563,677.338 727.577,651.089 709.067,632.055 
					735.272,627.772 747.642,604.277 759.802,627.892 785.984,632.385 767.298,651.253 				"/>
			</g>
		</g>
		<g>
			<g>
				
					<radialGradient id="SVGID_00000126311974952545982220000004055074525957061789_" cx="544.706" cy="6127.8608" r="602.1042" gradientTransform="matrix(0.735 0 0 0.2493 121.248 -532.7565)" gradientUnits="userSpaceOnUse">
					<stop  offset="0.1691" style="stop-color:#FFAA00"/>
					<stop  offset="0.2167" style="stop-color:#FFB219"/>
					<stop  offset="0.3405" style="stop-color:#FFC655"/>
					<stop  offset="0.4638" style="stop-color:#FFD889"/>
					<stop  offset="0.5836" style="stop-color:#FFE6B3"/>
					<stop  offset="0.6992" style="stop-color:#FFF1D4"/>
					<stop  offset="0.8094" style="stop-color:#FFF9EC"/>
					<stop  offset="0.9122" style="stop-color:#FFFDFA"/>
					<stop  offset="1" style="stop-color:#FFFFFF"/>
				</radialGradient>
				
					<ellipse style="fill:url(#SVGID_00000126311974952545982220000004055074525957061789_);" cx="521.607" cy="994.919" rx="442.518" ry="150.114"/>
				<path style="fill:#FFAA00;" d="M793.378,1043.297h-542.12c-51.865,0-93.91-42.045-93.91-93.91l0,0
					c0-51.865,42.046-93.91,93.91-93.91h542.12c51.865,0,93.91,42.045,93.91,93.91l0,0
					C887.289,1001.252,845.243,1043.297,793.378,1043.297z"/>
				<path style="fill:#00112F;" d="M793.378,1021.243h-542.12c-51.865,0-93.91-42.046-93.91-93.91l0,0
					c0-51.866,42.046-93.91,93.91-93.91h542.12c51.865,0,93.91,42.045,93.91,93.91l0,0
					C887.289,979.197,845.243,1021.243,793.378,1021.243z"/>
			</g>
			<g>
				<polygon style="fill:#FFBB00;" points="320.731,958.489 297.005,946.555 273.194,958.296 277.217,932.046 258.696,913.013 
					284.913,908.729 297.271,885.236 309.442,908.85 335.615,913.343 316.939,932.211 				"/>
				<polygon style="fill:#FFBB00;" points="433.324,958.489 409.598,946.555 385.796,958.296 389.798,932.046 371.288,913.013 
					397.505,908.729 409.875,885.236 422.034,908.85 448.208,913.343 429.532,932.211 				"/>
				<polygon style="fill:#FFBB00;" points="545.914,958.489 522.189,946.555 498.377,958.296 502.4,932.046 483.89,913.013 
					510.085,908.729 522.455,885.236 534.625,908.85 560.798,913.343 542.123,932.211 				"/>
				<polygon style="fill:#5C5F66;" points="658.498,958.489 634.784,946.555 610.971,958.296 614.983,932.046 596.474,913.013 
					622.69,908.729 635.049,885.236 647.22,908.85 673.393,913.343 654.717,932.211 				"/>
				<polygon style="fill:#5C5F66;" points="771.102,958.489 747.376,946.555 723.563,958.296 727.577,932.046 709.067,913.013 
					735.272,908.729 747.642,885.236 759.802,908.85 785.984,913.343 767.298,932.211 				"/>
			</g>
		</g>
		<g>
			<g>
				
					<radialGradient id="SVGID_00000139271056779221189590000006235486421518387097_" cx="544.706" cy="7254.8486" r="602.1048" gradientTransform="matrix(0.735 0 0 0.2493 121.248 -532.7565)" gradientUnits="userSpaceOnUse">
					<stop  offset="0.1691" style="stop-color:#FFAA00"/>
					<stop  offset="0.2167" style="stop-color:#FFB219"/>
					<stop  offset="0.3405" style="stop-color:#FFC655"/>
					<stop  offset="0.4638" style="stop-color:#FFD889"/>
					<stop  offset="0.5836" style="stop-color:#FFE6B3"/>
					<stop  offset="0.6992" style="stop-color:#FFF1D4"/>
					<stop  offset="0.8094" style="stop-color:#FFF9EC"/>
					<stop  offset="0.9122" style="stop-color:#FFFDFA"/>
					<stop  offset="1" style="stop-color:#FFFFFF"/>
				</radialGradient>
				
					<ellipse style="fill:url(#SVGID_00000139271056779221189590000006235486421518387097_);" cx="521.607" cy="1275.877" rx="442.518" ry="150.115"/>
				<path style="fill:#FFAA00;" d="M793.378,1324.256h-542.12c-51.865,0-93.91-42.045-93.91-93.91v-0.001
					c0-51.865,42.045-93.911,93.91-93.911h542.12c51.865,0,93.91,42.045,93.91,93.911v0.001
					C887.289,1282.211,845.243,1324.256,793.378,1324.256z"/>
				<path style="fill:#00112F;" d="M793.378,1302.201h-542.12c-51.865,0-93.91-42.045-93.91-93.91l0,0
					c0-51.866,42.046-93.91,93.91-93.91h542.12c51.865,0,93.91,42.045,93.91,93.91l0,0
					C887.289,1260.156,845.243,1302.201,793.378,1302.201z"/>
			</g>
			<g>
				<polygon style="fill:#FFBB00;" points="320.731,1239.447 297.005,1227.512 273.194,1239.254 277.217,1213.004 258.696,1193.971 
					284.913,1189.688 297.271,1166.194 309.442,1189.809 335.615,1194.302 316.939,1213.169 				"/>
				<polygon style="fill:#FFBB00;" points="433.324,1239.447 409.598,1227.512 385.796,1239.254 389.798,1213.004 371.288,1193.971 
					397.505,1189.688 409.875,1166.194 422.034,1189.809 448.208,1194.302 429.532,1213.169 				"/>
				<polygon style="fill:#5C5F66;" points="545.914,1239.447 522.189,1227.512 498.377,1239.254 502.4,1213.004 483.89,1193.971 
					510.085,1189.688 522.455,1166.194 534.625,1189.809 560.798,1194.302 542.123,1213.169 				"/>
				<polygon style="fill:#5C5F66;" points="658.498,1239.447 634.784,1227.512 610.971,1239.254 614.983,1213.004 596.474,1193.971 
					622.69,1189.688 635.049,1166.194 647.22,1189.809 673.393,1194.302 654.717,1213.169 				"/>
				<polygon style="fill:#5C5F66;" points="771.102,1239.447 747.376,1227.512 723.563,1239.254 727.577,1213.004 709.067,1193.971 
					735.272,1189.688 747.642,1166.194 759.802,1189.809 785.984,1194.302 767.298,1213.169 				"/>
			</g>
		</g>
		<g>
			<g>
				
					<radialGradient id="SVGID_00000072989431476497977350000016996488354938104508_" cx="544.706" cy="8381.8359" r="602.1049" gradientTransform="matrix(0.735 0 0 0.2493 121.248 -532.7565)" gradientUnits="userSpaceOnUse">
					<stop  offset="0.1691" style="stop-color:#FFAA00"/>
					<stop  offset="0.2167" style="stop-color:#FFB219"/>
					<stop  offset="0.3405" style="stop-color:#FFC655"/>
					<stop  offset="0.4638" style="stop-color:#FFD889"/>
					<stop  offset="0.5836" style="stop-color:#FFE6B3"/>
					<stop  offset="0.6992" style="stop-color:#FFF1D4"/>
					<stop  offset="0.8094" style="stop-color:#FFF9EC"/>
					<stop  offset="0.9122" style="stop-color:#FFFDFA"/>
					<stop  offset="1" style="stop-color:#FFFFFF"/>
				</radialGradient>
				
					<ellipse style="fill:url(#SVGID_00000072989431476497977350000016996488354938104508_);" cx="521.607" cy="1556.835" rx="442.518" ry="150.115"/>
				<path style="fill:#FFAA00;" d="M793.378,1605.213h-542.12c-51.865,0-93.91-42.045-93.91-93.91l0,0
					c0-51.865,42.046-93.91,93.91-93.91h542.12c51.865,0,93.91,42.045,93.91,93.91l0,0
					C887.289,1563.169,845.243,1605.213,793.378,1605.213z"/>
				<path style="fill:#00112F;" d="M793.378,1583.158h-542.12c-51.865,0-93.91-42.045-93.91-93.91l0,0
					c0-51.865,42.046-93.91,93.91-93.91h542.12c51.865,0,93.91,42.046,93.91,93.91l0,0
					C887.289,1541.113,845.243,1583.158,793.378,1583.158z"/>
			</g>
			<g>
				<polygon style="fill:#FFBB00;" points="320.731,1520.406 297.005,1508.47 273.194,1520.213 277.217,1493.963 258.696,1474.929 
					284.913,1470.646 297.271,1447.151 309.442,1470.767 335.615,1475.26 316.939,1494.128 				"/>
				<polygon style="fill:#5C5F66;" points="433.324,1520.406 409.598,1508.47 385.796,1520.213 389.798,1493.963 371.288,1474.929 
					397.505,1470.646 409.875,1447.151 422.034,1470.767 448.208,1475.26 429.532,1494.128 				"/>
				<polygon style="fill:#5C5F66;" points="545.914,1520.406 522.189,1508.47 498.377,1520.213 502.4,1493.963 483.89,1474.929 
					510.085,1470.646 522.455,1447.151 534.625,1470.767 560.798,1475.26 542.123,1494.128 				"/>
				<polygon style="fill:#5C5F66;" points="658.498,1520.406 634.784,1508.47 610.971,1520.213 614.983,1493.963 596.474,1474.929 
					622.69,1470.646 635.049,1447.151 647.22,1470.767 673.393,1475.26 654.717,1494.128 				"/>
				<polygon style="fill:#5C5F66;" points="771.102,1520.406 747.376,1508.47 723.563,1520.213 727.577,1493.963 709.067,1474.929 
					735.272,1470.646 747.642,1447.151 759.802,1470.767 785.984,1475.26 767.298,1494.128 				"/>
			</g>
		</g>
		<g>
			<g>
				
					<radialGradient id="SVGID_00000061439109479047276780000010984338098001557407_" cx="544.706" cy="9508.8242" r="602.1041" gradientTransform="matrix(0.735 0 0 0.2493 121.248 -532.7565)" gradientUnits="userSpaceOnUse">
					<stop  offset="0.1691" style="stop-color:#FFAA00"/>
					<stop  offset="0.2167" style="stop-color:#FFB219"/>
					<stop  offset="0.3405" style="stop-color:#FFC655"/>
					<stop  offset="0.4638" style="stop-color:#FFD889"/>
					<stop  offset="0.5836" style="stop-color:#FFE6B3"/>
					<stop  offset="0.6992" style="stop-color:#FFF1D4"/>
					<stop  offset="0.8094" style="stop-color:#FFF9EC"/>
					<stop  offset="0.9122" style="stop-color:#FFFDFA"/>
					<stop  offset="1" style="stop-color:#FFFFFF"/>
				</radialGradient>
				
					<ellipse style="fill:url(#SVGID_00000061439109479047276780000010984338098001557407_);" cx="521.607" cy="1837.793" rx="442.518" ry="150.114"/>
				<path style="fill:#FFAA00;" d="M793.378,1886.171h-542.12c-51.865,0-93.91-42.045-93.91-93.91l0,0
					c0-51.866,42.046-93.91,93.91-93.91h542.12c51.865,0,93.91,42.045,93.91,93.91l0,0
					C887.289,1844.126,845.243,1886.171,793.378,1886.171z"/>
				<path style="fill:#00112F;" d="M793.378,1864.117h-542.12c-51.865,0-93.91-42.045-93.91-93.91v-0.001
					c0-51.865,42.045-93.91,93.91-93.91h542.12c51.865,0,93.91,42.045,93.91,93.91v0.001
					C887.289,1822.072,845.243,1864.117,793.378,1864.117z"/>
			</g>
			<g>
				<polygon style="fill:#5C5F66;" points="320.731,1801.363 297.005,1789.428 273.194,1801.17 277.217,1774.921 258.696,1755.887 
					284.913,1751.604 297.271,1728.11 309.442,1751.724 335.615,1756.218 316.939,1775.085 				"/>
				<polygon style="fill:#5C5F66;" points="433.324,1801.363 409.598,1789.428 385.796,1801.17 389.798,1774.921 371.288,1755.887 
					397.505,1751.604 409.875,1728.11 422.034,1751.724 448.208,1756.218 429.532,1775.085 				"/>
				<polygon style="fill:#5C5F66;" points="545.914,1801.363 522.189,1789.428 498.377,1801.17 502.4,1774.921 483.89,1755.887 
					510.085,1751.604 522.455,1728.11 534.625,1751.724 560.798,1756.218 542.123,1775.085 				"/>
				<polygon style="fill:#5C5F66;" points="658.498,1801.363 634.784,1789.428 610.971,1801.17 614.983,1774.921 596.474,1755.887 
					622.69,1751.604 635.049,1728.11 647.22,1751.724 673.393,1756.218 654.717,1775.085 				"/>
				<polygon style="fill:#5C5F66;" points="771.102,1801.363 747.376,1789.428 723.563,1801.17 727.577,1774.921 709.067,1755.887 
					735.272,1751.604 747.642,1728.11 759.802,1751.724 785.984,1756.218 767.298,1775.085 				"/>
			</g>
		</g>
	</g>
	<g>
		<g>
			<g>
				
					<radialGradient id="SVGID_00000078013918121665472480000013632153783032289979_" cx="1986.1416" cy="3873.8853" r="602.1049" gradientTransform="matrix(0.735 0 0 0.2493 121.248 -532.7565)" gradientUnits="userSpaceOnUse">
					<stop  offset="0.1691" style="stop-color:#4F4F4F"/>
					<stop  offset="0.1888" style="stop-color:#565656"/>
					<stop  offset="0.3386" style="stop-color:#898989"/>
					<stop  offset="0.4863" style="stop-color:#B4B4B4"/>
					<stop  offset="0.6288" style="stop-color:#D4D4D4"/>
					<stop  offset="0.7648" style="stop-color:#ECECEC"/>
					<stop  offset="0.8916" style="stop-color:#FAFAFA"/>
					<stop  offset="1" style="stop-color:#FFFFFF"/>
				</radialGradient>
				
					<ellipse style="fill:url(#SVGID_00000078013918121665472480000013632153783032289979_);" cx="1581.062" cy="433.003" rx="442.518" ry="150.115"/>
				<path style="fill:#FFAA00;" d="M1852.833,481.381h-542.121c-51.865,0-93.91-42.045-93.91-93.91v0
					c0-51.866,42.046-93.911,93.911-93.911h542.12c51.865,0,93.91,42.045,93.91,93.91v0.001
					C1946.744,439.336,1904.699,481.381,1852.833,481.381z"/>
				<path style="fill:#FFFFFF;" d="M1852.833,459.326h-542.12c-51.866,0-93.911-42.045-93.911-93.91l0,0
					c0-51.866,42.046-93.91,93.911-93.91h542.12c51.865,0,93.91,42.045,93.91,93.91l0,0
					C1946.744,417.281,1904.699,459.326,1852.833,459.326z"/>
			</g>
			<g>
				<polygon style="fill:#FFBB00;" points="1380.186,396.573 1356.461,384.638 1332.649,396.38 1336.672,370.131 1318.151,351.097 
					1344.368,346.814 1356.726,323.319 1368.898,346.935 1395.07,351.428 1376.394,370.295 				"/>
				<polygon style="fill:#FFBB00;" points="1492.779,396.573 1469.054,384.638 1445.252,396.38 1449.254,370.131 1430.744,351.097 
					1456.96,346.814 1469.33,323.319 1481.49,346.935 1507.663,351.428 1488.987,370.295 				"/>
				<polygon style="fill:#FFBB00;" points="1605.37,396.573 1581.645,384.638 1557.832,396.38 1561.855,370.131 1543.346,351.097 
					1569.54,346.814 1581.91,323.319 1594.081,346.935 1620.253,351.428 1601.578,370.295 				"/>
				<polygon style="fill:#FFBB00;" points="1717.953,396.573 1694.239,384.638 1670.427,396.38 1674.439,370.131 1655.929,351.097 
					1682.145,346.814 1694.504,323.319 1706.675,346.935 1732.848,351.428 1714.173,370.295 				"/>
				<polygon style="fill:#FFBB00;" points="1830.557,396.573 1806.832,384.638 1783.018,396.38 1787.032,370.131 1768.522,351.097 
					1794.728,346.814 1807.098,323.319 1819.257,346.935 1845.44,351.428 1826.754,370.295 				"/>
			</g>
		</g>
		<g>
			<g>
				
					<radialGradient id="SVGID_00000031901615561980863320000005459758174055515303_" cx="1986.1416" cy="5000.8721" r="602.1049" gradientTransform="matrix(0.735 0 0 0.2493 121.248 -532.7565)" gradientUnits="userSpaceOnUse">
					<stop  offset="0.1691" style="stop-color:#4F4F4F"/>
					<stop  offset="0.1888" style="stop-color:#565656"/>
					<stop  offset="0.3386" style="stop-color:#898989"/>
					<stop  offset="0.4863" style="stop-color:#B4B4B4"/>
					<stop  offset="0.6288" style="stop-color:#D4D4D4"/>
					<stop  offset="0.7648" style="stop-color:#ECECEC"/>
					<stop  offset="0.8916" style="stop-color:#FAFAFA"/>
					<stop  offset="1" style="stop-color:#FFFFFF"/>
				</radialGradient>
				
					<ellipse style="fill:url(#SVGID_00000031901615561980863320000005459758174055515303_);" cx="1581.062" cy="713.961" rx="442.518" ry="150.115"/>
				<path style="fill:#FFAA00;" d="M1852.833,762.339h-542.12c-51.866,0-93.911-42.045-93.911-93.91l0,0
					c0-51.866,42.046-93.91,93.911-93.91h542.12c51.865,0,93.91,42.045,93.91,93.91l0,0
					C1946.744,720.294,1904.699,762.339,1852.833,762.339z"/>
				<path style="fill:#FFFFFF;" d="M1852.833,740.285h-542.12c-51.865,0-93.91-42.045-93.91-93.91v-0.001
					c0-51.865,42.045-93.91,93.91-93.91h542.12c51.865,0,93.91,42.045,93.91,93.91v0.001
					C1946.744,698.24,1904.699,740.285,1852.833,740.285z"/>
			</g>
			<g>
				<polygon style="fill:#FFBB00;" points="1380.186,677.531 1356.461,665.596 1332.649,677.338 1336.672,651.089 1318.151,632.055 
					1344.368,627.772 1356.726,604.277 1368.898,627.892 1395.07,632.385 1376.394,651.253 				"/>
				<polygon style="fill:#FFBB00;" points="1492.779,677.531 1469.054,665.596 1445.252,677.338 1449.254,651.089 1430.744,632.055 
					1456.96,627.772 1469.33,604.277 1481.49,627.892 1507.663,632.385 1488.987,651.253 				"/>
				<polygon style="fill:#FFBB00;" points="1605.37,677.531 1581.645,665.596 1557.832,677.338 1561.855,651.089 1543.346,632.055 
					1569.54,627.772 1581.91,604.277 1594.081,627.892 1620.253,632.385 1601.578,651.253 				"/>
				<polygon style="fill:#FFBB00;" points="1717.953,677.531 1694.239,665.596 1670.427,677.338 1674.439,651.089 1655.929,632.055 
					1682.145,627.772 1694.504,604.277 1706.675,627.892 1732.848,632.385 1714.173,651.253 				"/>
				<polygon style="fill:#B3B3B3;" points="1830.557,677.531 1806.832,665.596 1783.018,677.338 1787.032,651.089 1768.522,632.055 
					1794.728,627.772 1807.098,604.277 1819.257,627.892 1845.44,632.385 1826.754,651.253 				"/>
			</g>
		</g>
		<g>
			<g>
				
					<radialGradient id="SVGID_00000028287761695473468980000013124172593575961224_" cx="1986.1416" cy="6127.8608" r="602.1042" gradientTransform="matrix(0.735 0 0 0.2493 121.248 -532.7565)" gradientUnits="userSpaceOnUse">
					<stop  offset="0.1691" style="stop-color:#4F4F4F"/>
					<stop  offset="0.1888" style="stop-color:#565656"/>
					<stop  offset="0.3386" style="stop-color:#898989"/>
					<stop  offset="0.4863" style="stop-color:#B4B4B4"/>
					<stop  offset="0.6288" style="stop-color:#D4D4D4"/>
					<stop  offset="0.7648" style="stop-color:#ECECEC"/>
					<stop  offset="0.8916" style="stop-color:#FAFAFA"/>
					<stop  offset="1" style="stop-color:#FFFFFF"/>
				</radialGradient>
				
					<ellipse style="fill:url(#SVGID_00000028287761695473468980000013124172593575961224_);" cx="1581.062" cy="994.919" rx="442.518" ry="150.114"/>
				<path style="fill:#FFAA00;" d="M1852.833,1043.297h-542.12c-51.866,0-93.911-42.045-93.911-93.91l0,0
					c0-51.865,42.046-93.91,93.911-93.91h542.12c51.865,0,93.91,42.045,93.91,93.91l0,0
					C1946.744,1001.252,1904.699,1043.297,1852.833,1043.297z"/>
				<path style="fill:#FFFFFF;" d="M1852.833,1021.243h-542.12c-51.866,0-93.911-42.046-93.911-93.91l0,0
					c0-51.866,42.046-93.91,93.911-93.91h542.12c51.865,0,93.91,42.045,93.91,93.91l0,0
					C1946.744,979.197,1904.699,1021.243,1852.833,1021.243z"/>
			</g>
			<g>
				<polygon style="fill:#FFBB00;" points="1380.186,958.489 1356.461,946.555 1332.649,958.296 1336.672,932.046 1318.151,913.013 
					1344.368,908.729 1356.726,885.236 1368.898,908.85 1395.07,913.343 1376.394,932.211 				"/>
				<polygon style="fill:#FFBB00;" points="1492.779,958.489 1469.054,946.555 1445.252,958.296 1449.254,932.046 1430.744,913.013 
					1456.96,908.729 1469.33,885.236 1481.49,908.85 1507.663,913.343 1488.987,932.211 				"/>
				<polygon style="fill:#FFBB00;" points="1605.37,958.489 1581.645,946.555 1557.832,958.296 1561.855,932.046 1543.346,913.013 
					1569.54,908.729 1581.91,885.236 1594.081,908.85 1620.253,913.343 1601.578,932.211 				"/>
				<polygon style="fill:#B3B3B3;" points="1717.953,958.489 1694.239,946.555 1670.427,958.296 1674.439,932.046 1655.929,913.013 
					1682.145,908.729 1694.504,885.236 1706.675,908.85 1732.848,913.343 1714.173,932.211 				"/>
				<polygon style="fill:#B3B3B3;" points="1830.557,958.489 1806.832,946.555 1783.018,958.296 1787.032,932.046 1768.522,913.013 
					1794.728,908.729 1807.098,885.236 1819.257,908.85 1845.44,913.343 1826.754,932.211 				"/>
			</g>
		</g>
		<g>
			<g>
				
					<radialGradient id="SVGID_00000019674659092610884520000011722651848051397767_" cx="1986.1416" cy="7254.8486" r="602.1049" gradientTransform="matrix(0.735 0 0 0.2493 121.248 -532.7565)" gradientUnits="userSpaceOnUse">
					<stop  offset="0.1691" style="stop-color:#4F4F4F"/>
					<stop  offset="0.1888" style="stop-color:#565656"/>
					<stop  offset="0.3386" style="stop-color:#898989"/>
					<stop  offset="0.4863" style="stop-color:#B4B4B4"/>
					<stop  offset="0.6288" style="stop-color:#D4D4D4"/>
					<stop  offset="0.7648" style="stop-color:#ECECEC"/>
					<stop  offset="0.8916" style="stop-color:#FAFAFA"/>
					<stop  offset="1" style="stop-color:#FFFFFF"/>
				</radialGradient>
				
					<ellipse style="fill:url(#SVGID_00000019674659092610884520000011722651848051397767_);" cx="1581.062" cy="1275.877" rx="442.518" ry="150.115"/>
				<path style="fill:#FFAA00;" d="M1852.833,1324.256h-542.12c-51.865,0-93.91-42.045-93.91-93.91v-0.001
					c0-51.865,42.045-93.911,93.91-93.911h542.12c51.865,0,93.91,42.045,93.91,93.911v0.001
					C1946.744,1282.211,1904.699,1324.256,1852.833,1324.256z"/>
				<path style="fill:#FFFFFF;" d="M1852.833,1302.201h-542.12c-51.866,0-93.911-42.045-93.911-93.91l0,0
					c0-51.866,42.046-93.91,93.911-93.91h542.12c51.865,0,93.91,42.045,93.91,93.91l0,0
					C1946.744,1260.156,1904.699,1302.201,1852.833,1302.201z"/>
			</g>
			<g>
				<polygon style="fill:#FFBB00;" points="1380.186,1239.447 1356.461,1227.512 1332.649,1239.254 1336.672,1213.004 
					1318.151,1193.971 1344.368,1189.688 1356.726,1166.194 1368.898,1189.809 1395.07,1194.302 1376.394,1213.169 				"/>
				<polygon style="fill:#FFBB00;" points="1492.779,1239.447 1469.054,1227.512 1445.252,1239.254 1449.254,1213.004 
					1430.744,1193.971 1456.96,1189.688 1469.33,1166.194 1481.49,1189.809 1507.663,1194.302 1488.987,1213.169 				"/>
				<polygon style="fill:#B3B3B3;" points="1605.37,1239.447 1581.645,1227.512 1557.832,1239.254 1561.855,1213.004 
					1543.346,1193.971 1569.54,1189.688 1581.91,1166.194 1594.081,1189.809 1620.253,1194.302 1601.578,1213.169 				"/>
				<polygon style="fill:#B3B3B3;" points="1717.953,1239.447 1694.239,1227.512 1670.427,1239.254 1674.439,1213.004 
					1655.929,1193.971 1682.145,1189.688 1694.504,1166.194 1706.675,1189.809 1732.848,1194.302 1714.173,1213.169 				"/>
				<polygon style="fill:#B3B3B3;" points="1830.557,1239.447 1806.832,1227.512 1783.018,1239.254 1787.032,1213.004 
					1768.522,1193.971 1794.728,1189.688 1807.098,1166.194 1819.257,1189.809 1845.44,1194.302 1826.754,1213.169 				"/>
			</g>
		</g>
		<g>
			<g>
				
					<radialGradient id="SVGID_00000087410588738914706600000013485448152451481219_" cx="1986.1416" cy="8381.8359" r="602.105" gradientTransform="matrix(0.735 0 0 0.2493 121.248 -532.7565)" gradientUnits="userSpaceOnUse">
					<stop  offset="0.1691" style="stop-color:#4F4F4F"/>
					<stop  offset="0.1888" style="stop-color:#565656"/>
					<stop  offset="0.3386" style="stop-color:#898989"/>
					<stop  offset="0.4863" style="stop-color:#B4B4B4"/>
					<stop  offset="0.6288" style="stop-color:#D4D4D4"/>
					<stop  offset="0.7648" style="stop-color:#ECECEC"/>
					<stop  offset="0.8916" style="stop-color:#FAFAFA"/>
					<stop  offset="1" style="stop-color:#FFFFFF"/>
				</radialGradient>
				
					<ellipse style="fill:url(#SVGID_00000087410588738914706600000013485448152451481219_);" cx="1581.062" cy="1556.835" rx="442.518" ry="150.115"/>
				<path style="fill:#FFAA00;" d="M1852.833,1605.213h-542.12c-51.866,0-93.911-42.045-93.911-93.91l0,0
					c0-51.865,42.046-93.91,93.911-93.91h542.12c51.865,0,93.91,42.045,93.91,93.91l0,0
					C1946.744,1563.169,1904.699,1605.213,1852.833,1605.213z"/>
				<path style="fill:#FFFFFF;" d="M1852.833,1583.158h-542.12c-51.866,0-93.911-42.045-93.911-93.91l0,0
					c0-51.865,42.046-93.91,93.911-93.91h542.12c51.865,0,93.91,42.046,93.91,93.91l0,0
					C1946.744,1541.113,1904.699,1583.158,1852.833,1583.158z"/>
			</g>
			<g>
				<polygon style="fill:#FFBB00;" points="1380.186,1520.406 1356.461,1508.47 1332.649,1520.213 1336.672,1493.963 
					1318.151,1474.929 1344.368,1470.646 1356.726,1447.151 1368.898,1470.767 1395.07,1475.26 1376.394,1494.128 				"/>
				<polygon style="fill:#B3B3B3;" points="1492.779,1520.406 1469.054,1508.47 1445.252,1520.213 1449.254,1493.963 
					1430.744,1474.929 1456.96,1470.646 1469.33,1447.151 1481.49,1470.767 1507.663,1475.26 1488.987,1494.128 				"/>
				<polygon style="fill:#B3B3B3;" points="1605.37,1520.406 1581.645,1508.47 1557.832,1520.213 1561.855,1493.963 
					1543.346,1474.929 1569.54,1470.646 1581.91,1447.151 1594.081,1470.767 1620.253,1475.26 1601.578,1494.128 				"/>
				<polygon style="fill:#B3B3B3;" points="1717.953,1520.406 1694.239,1508.47 1670.427,1520.213 1674.439,1493.963 
					1655.929,1474.929 1682.145,1470.646 1694.504,1447.151 1706.675,1470.767 1732.848,1475.26 1714.173,1494.128 				"/>
				<polygon style="fill:#B3B3B3;" points="1830.557,1520.406 1806.832,1508.47 1783.018,1520.213 1787.032,1493.963 
					1768.522,1474.929 1794.728,1470.646 1807.098,1447.151 1819.257,1470.767 1845.44,1475.26 1826.754,1494.128 				"/>
			</g>
		</g>
		<g>
			<g>
				
					<radialGradient id="SVGID_00000110468329278371810900000009255059640738960803_" cx="1986.1416" cy="9508.8242" r="602.1042" gradientTransform="matrix(0.735 0 0 0.2493 121.248 -532.7565)" gradientUnits="userSpaceOnUse">
					<stop  offset="0.1691" style="stop-color:#4F4F4F"/>
					<stop  offset="0.1888" style="stop-color:#565656"/>
					<stop  offset="0.3386" style="stop-color:#898989"/>
					<stop  offset="0.4863" style="stop-color:#B4B4B4"/>
					<stop  offset="0.6288" style="stop-color:#D4D4D4"/>
					<stop  offset="0.7648" style="stop-color:#ECECEC"/>
					<stop  offset="0.8916" style="stop-color:#FAFAFA"/>
					<stop  offset="1" style="stop-color:#FFFFFF"/>
				</radialGradient>
				
					<ellipse style="fill:url(#SVGID_00000110468329278371810900000009255059640738960803_);" cx="1581.062" cy="1837.793" rx="442.518" ry="150.114"/>
				<path style="fill:#FFAA00;" d="M1852.833,1886.171h-542.12c-51.866,0-93.911-42.045-93.911-93.91l0,0
					c0-51.866,42.046-93.91,93.911-93.91h542.12c51.865,0,93.91,42.045,93.91,93.91l0,0
					C1946.744,1844.126,1904.699,1886.171,1852.833,1886.171z"/>
				<path style="fill:#FFFFFF;" d="M1852.833,1864.117h-542.12c-51.865,0-93.91-42.045-93.91-93.91v-0.001
					c0-51.865,42.045-93.91,93.91-93.91h542.12c51.865,0,93.91,42.045,93.91,93.91v0.001
					C1946.744,1822.072,1904.699,1864.117,1852.833,1864.117z"/>
			</g>
			<g>
				<polygon style="fill:#B3B3B3;" points="1380.186,1801.363 1356.461,1789.428 1332.649,1801.17 1336.672,1774.921 
					1318.151,1755.887 1344.368,1751.604 1356.726,1728.11 1368.898,1751.724 1395.07,1756.218 1376.394,1775.085 				"/>
				<polygon style="fill:#B3B3B3;" points="1492.779,1801.363 1469.054,1789.428 1445.252,1801.17 1449.254,1774.921 
					1430.744,1755.887 1456.96,1751.604 1469.33,1728.11 1481.49,1751.724 1507.663,1756.218 1488.987,1775.085 				"/>
				<polygon style="fill:#B3B3B3;" points="1605.37,1801.363 1581.645,1789.428 1557.832,1801.17 1561.855,1774.921 
					1543.346,1755.887 1569.54,1751.604 1581.91,1728.11 1594.081,1751.724 1620.253,1756.218 1601.578,1775.085 				"/>
				<polygon style="fill:#B3B3B3;" points="1717.953,1801.363 1694.239,1789.428 1670.427,1801.17 1674.439,1774.921 
					1655.929,1755.887 1682.145,1751.604 1694.504,1728.11 1706.675,1751.724 1732.848,1756.218 1714.173,1775.085 				"/>
				<polygon style="fill:#B3B3B3;" points="1830.557,1801.363 1806.832,1789.428 1783.018,1801.17 1787.032,1774.921 
					1768.522,1755.887 1794.728,1751.604 1807.098,1728.11 1819.257,1751.724 1845.44,1756.218 1826.754,1775.085 				"/>
			</g>
		</g>
	</g>
</g>
</svg>
